<?xml version="1.0" encoding="utf-8"?>
<!-- Generator: Adobe Illustrator 25.2.3, SVG Export Plug-In . SVG Version: 6.00 Build 0)  -->
<svg version="1.1" id="Flat" xmlns="http://www.w3.org/2000/svg" xmlns:xlink="http://www.w3.org/1999/xlink" x="0px" y="0px"
	 viewBox="0 0 512 512" enable-background="new 0 0 512 512" xml:space="preserve">
<path fill="#63D3B0" d="M463.349,104h-334c-0.552,0-1,0.448-1,1v182c0,0.552,0.448,1,1,1h334c0.552,0,1-0.448,1-1V105
	C464.349,104.448,463.902,104,463.349,104z"/>
<ellipse fill="#AEFFE4" cx="296.349" cy="196" rx="56" ry="60"/>
<g>
	<path fill="#34AD85" d="M240.349,196c0-33.12,25.04-60,56-60h-16h-104v0.64c-0.32,8.48-7.44,15.36-16,15.36v88c8.8,0,16,7.2,16,16
		h104h16C265.389,256,240.349,229.12,240.349,196z"/>
	<path fill="#34AD85" d="M416.349,136h-120c30.96,0,56,26.88,56,60s-25.04,60-56,60h120c0-8.8,7.2-16,16-16v-88
		C423.55,152,416.349,144.8,416.349,136z"/>
</g>
<path fill="#177551" d="M432.349,200.72V240c-8.8,0-16,7.2-16,16h-39.28C401.949,245.52,421.869,225.6,432.349,200.72z"/>
<path fill="#34AD85" d="M464.349,112v168c0,4.4-3.6,8-8,8h-320c-4.4,0-8-3.6-8-8v-16h208.8c14.16,0,27.68-2.88,39.92-8h39.28
	c0-8.8,7.2-16,16-16v-39.28c5.12-12.24,8-25.76,8-39.92V104h16C460.749,104,464.349,107.6,464.349,112z"/>
<path fill="#FFD5C2" d="M200.029,112c2.56,7.44-0.4,16.32-8.24,20.32c-2.32,1.12-4.88,1.76-7.44,1.76s-5.12-0.64-7.44-1.76
	l-37.76-16.24c-5.2-2-10.8,1.92-10.8,7.52V272h-25.28c-9.68,0-19.28-1.76-28.32-5.12l-37.04-13.84c-8.88-3.36-18.32-5.04-27.84-5.04
	h-1.52V120h10.8c8.64,0,17.28-2,25.04-5.92l44.56-22.24L121.869,76c13.44-7.12,29.92-4.88,40.96,5.6l31.12,22.4
	c2.96,2.16,4.96,4.96,6,8H200.029z"/>
<path fill="#FCAD95" d="M48.748,257.165l26.001,9.715c9.04,3.36,18.64,5.12,28.32,5.12h25.28V160.153
	C110.987,199.735,86.053,234.943,48.748,257.165z"/>
<path fill="#FFD5C2" d="M504.349,352v80h-68c-2.64,0-5.28,0.24-7.92,0.8l-107.52,21.52c-5.68,1.12-11.52,1.44-17.28,1.04
	l-199.28-14.8c-4.56-0.32-8-4.08-8-8.56c0-7.44,3.36-14.08,8.64-18.4c4.16-3.52,9.52-5.6,15.36-5.6h145.44
	c8.48,0,19.76-2.16,27.76-6.32c1.92-1.04,3.84-2.08,5.84-2.8l44.88-16.88l2.32-0.88c5.04-1.84,5.28-8.88,0.4-11.12l-18.64-6.8
	l-67.68-24.72c-1.44-0.8-2.24-2.32-2.24-3.84c0-0.88,0.32-1.84,0.88-2.64c12.4-16.48,34.4-22.64,53.52-14.96l15.52,4.64l39.68,11.84
	c5.52,1.6,11.28,2.08,16.88,1.2l1.28-0.16c6.16-0.88,12.32-1.28,18.48-1.28c17.68,0,35.36,3.6,51.68,10.56
	c3.04,1.28,6.08,2.72,9.04,4.24c5.28,2.72,11.12,3.92,17.04,3.92H504.349z"/>
<path fill="#FCAD95" d="M504.349,408.48V432h-68c-2.64,0-5.28,0.24-7.92,0.8l-107.52,21.52c-5.68,1.12-11.52,1.44-17.28,1.04
	l-199.28-14.8c-4.56-0.32-8-4.08-8-8.56c0-5.92,2.08-11.28,5.68-15.44c0.72,0.24,1.52,0.4,2.32,0.48l199.28,14.8
	c5.76,0.4,11.6,0.08,17.28-1.04l107.52-21.52c2.64-0.56,5.28-0.8,7.92-0.8H504.349z"/>
<path fill="#24A073" d="M320.189,209.922c0-12.133-10.73-22-23.918-22c-4.25,0-7.844-2.711-7.844-5.922s3.594-5.922,7.844-5.922
	c3.035,0,5.727,1.258,7.023,3.281c2.375,3.719,7.328,4.805,11.051,2.414c3.719-2.383,4.805-7.328,2.418-11.055
	c-2.85-4.448-7.284-7.553-12.414-9.223V160c0-4.422-3.582-8-8-8s-8,3.578-8,8v1.417c-9.245,3.02-15.922,11.062-15.922,20.583
	c0,12.086,10.695,21.922,23.844,21.922c4.293,0,7.918,2.75,7.918,6c0,3.211-3.625,5.922-7.918,5.922c-3.359,0-5.902-1.633-6.93-3.25
	c-2.371-3.727-7.316-4.828-11.043-2.461c-3.73,2.367-4.832,7.312-2.465,11.039c2.811,4.425,7.337,7.58,12.516,9.267V232
	c0,4.422,3.582,8,8,8s8-3.578,8-8v-1.533C313.555,227.413,320.189,219.398,320.189,209.922z"/>
<path fill="#FCF1ED" d="M144.59,90.73c-6.995-7.553-29.932,2.17-22.925,9.736c2.815,3.039,6.98-2.767,11.968-4.056
	C141.04,94.496,148.778,95.252,144.59,90.73z"/>
</svg>
