<?xml version="1.0" encoding="UTF-8"?>
<!DOCTYPE svg PUBLIC "-//W3C//DTD SVG 1.1//EN" "http://www.w3.org/Graphics/SVG/1.1/DTD/svg11.dtd">
<!-- Creator: CorelDRAW -->
<svg xmlns="http://www.w3.org/2000/svg" xml:space="preserve" width="2.83333in" height="2.83333in" version="1.1" style="shape-rendering:geometricPrecision; text-rendering:geometricPrecision; image-rendering:optimizeQuality; fill-rule:evenodd; clip-rule:evenodd"
viewBox="0 0 2833.33 2833.33"
 xmlns:xlink="http://www.w3.org/1999/xlink"
 xmlns:xodm="http://www.corel.com/coreldraw/odm/2003">
 <defs>
  <style type="text/css">
   <![CDATA[
    .fil3 {fill:#FEFEFE}
    .fil0 {fill:#04020D}
    .fil2 {fill:#09E7EC}
    .fil1 {fill:#EE050B}
   ]]>
  </style>
 </defs>
 <g id="Layer_x0020_1">
  <metadata id="CorelCorpID_0Corel-Layer"/>
  <circle class="fil0" cx="1416.67" cy="1416.67" r="1416.67"/>
  <g id="_3061018924336">
   <path class="fil1" d="M2219.69 1632.58l-287.94 -1.4 -17.33 -217.22 285.36 0 39.8 194.41c2.66,12.86 -7.56,24.22 -19.88,24.22zm-328.23 -1.6l-224.26 -1.09 -9.67 -215.94 216.62 0 17.31 217.03zm-264.71 -1.29l-225.19 -1.1 0.26 -214.64 215.27 0 9.66 215.74zm-265.49 -1.3l-228.24 -1.11 9.56 -213.33 218.93 0 -0.25 214.44zm-268.66 -1.31l-224.24 -1.09 16.92 -212.04 216.87 0 -9.55 213.14zm-264.49 -1.29l-274.7 -1.34c-12.43,-0.03 -21.97,-11.39 -19.74,-23.65l32.44 -186.86 278.91 0 -16.9 211.85zm-255.01 -252.16l30.69 -176.78 258.54 0 -14.11 176.78 -275.13 0zm329.51 -176.78l209.26 0 -7.92 176.78 -215.45 0 14.11 -176.78zm249.7 0l209.47 0 -0.21 176.78 -217.18 0 7.92 -176.78zm249.78 0l205.28 0 7.92 176.78 -213.41 0 0.21 -176.78zm245.72 0l209.02 0 14.11 176.78 -215.2 0 -7.92 -176.78zm249.29 0l258.24 0 36.18 176.78 -280.32 0 -14.11 -176.78zm-1286.31 -40.31l28.94 -166.7 239.12 0 -13.3 166.7 -254.76 0zm308.34 -166.7l202.01 0 -7.46 166.7 -207.85 0 13.31 -166.7zm242.45 0l200.44 0 -0.2 166.7 -207.71 0 7.47 -166.7zm240.75 0l195.77 0 7.46 166.7 -203.43 0 0.2 -166.7zm236.2 0l201.77 0 13.3 166.7 -207.61 0 -7.46 -166.7zm242.05 0l232.38 0 34.12 166.7 -253.2 0 -13.3 -166.7zm-1233.85 -40.31l32.37 -186.43c1.68,-9.66 10.07,-16.65 19.87,-16.65l199.31 0 -16.2 203.08 -235.34 0zm291.82 -203.08l193.5 -0 -9.09 203.08 -200.61 0 16.21 -203.08zm233.93 -0l189.83 0 -0.24 203.08 -198.69 0 9.09 -203.08zm230.15 0l184.57 0 9.1 203.08 -193.92 0 0.25 -203.08zm225.01 0l193.25 -0.01 16.21 203.09 -200.36 0 -9.09 -203.08zm233.53 -0.01l185.54 0c9.52,0 17.77,6.72 19.74,16.1l38.28 186.99 -227.35 0 -16.2 -203.09z"/>
   <path class="fil1" d="M1695.24 2086.87l-617.24 0c-40.03,0 -72.64,-32.61 -72.64,-72.64 0,-40.03 32.61,-72.64 72.64,-72.64l617.24 -0c40.03,0 72.64,32.61 72.64,72.64 0,40.04 -32.61,72.65 -72.64,72.65z"/>
   <path class="fil1" d="M1497.75 1981.89c-17.11,0 -249.41,6.35 -249.41,-20.15 0,-73.35 57.94,-128.63 134.78,-128.63 76.84,0 134.79,55.29 134.79,128.63 0,11.06 -8.96,20.15 -20.16,20.15z"/>
   <path class="fil1" d="M1436.31 1885.04c-11.04,0 -124.01,5.23 -124.01,-21.28l0 -172.3c0,-11.06 8.96,-20.15 20.15,-20.15l103.85 0c11.06,0 20.16,9.1 20.16,20.15l0 173.42c0,11.06 -9.1,20.16 -20.16,20.16z"/>
  </g>
  <g id="_3061018926064">
   <path class="fil2" d="M2279.69 1632.58l-287.94 -1.4 -17.33 -217.22 285.36 0 39.8 194.41c2.66,12.86 -7.56,24.22 -19.88,24.22zm-328.23 -1.6l-224.26 -1.09 -9.67 -215.94 216.62 0 17.31 217.03zm-264.71 -1.29l-225.19 -1.1 0.26 -214.64 215.27 0 9.66 215.74zm-265.49 -1.3l-228.24 -1.11 9.56 -213.33 218.93 0 -0.25 214.44zm-268.66 -1.31l-224.24 -1.09 16.92 -212.04 216.87 0 -9.55 213.14zm-264.49 -1.29l-274.7 -1.34c-12.43,-0.03 -21.97,-11.39 -19.74,-23.65l32.44 -186.86 278.91 0 -16.9 211.85zm-255.01 -252.16l30.69 -176.78 258.54 0 -14.11 176.78 -275.13 0zm329.51 -176.78l209.26 0 -7.92 176.78 -215.45 0 14.11 -176.78zm249.7 0l209.47 0 -0.21 176.78 -217.18 0 7.92 -176.78zm249.78 0l205.28 0 7.92 176.78 -213.41 0 0.21 -176.78zm245.72 0l209.02 0 14.11 176.78 -215.2 0 -7.92 -176.78zm249.29 0l258.24 0 36.18 176.78 -280.32 0 -14.11 -176.78zm-1286.31 -40.31l28.94 -166.7 239.12 0 -13.3 166.7 -254.76 0zm308.34 -166.7l202.01 0 -7.46 166.7 -207.85 0 13.31 -166.7zm242.45 0l200.44 0 -0.2 166.7 -207.71 0 7.47 -166.7zm240.75 0l195.77 0 7.46 166.7 -203.43 0 0.2 -166.7zm236.2 0l201.77 0 13.3 166.7 -207.61 0 -7.46 -166.7zm242.05 0l232.38 0 34.12 166.7 -253.2 0 -13.3 -166.7zm-1233.85 -40.31l32.37 -186.43c1.68,-9.66 10.07,-16.65 19.87,-16.65l199.31 0 -16.2 203.08 -235.34 0zm291.82 -203.08l193.5 -0 -9.09 203.08 -200.61 0 16.21 -203.08zm233.93 -0l189.83 0 -0.24 203.08 -198.69 0 9.09 -203.08zm230.15 0l184.57 0 9.1 203.08 -193.92 0 0.25 -203.08zm225.01 0l193.25 -0.01 16.21 203.09 -200.36 0 -9.09 -203.08zm233.53 -0.01l185.54 0c9.52,0 17.77,6.72 19.74,16.1l38.28 186.99 -227.35 0 -16.2 -203.09z"/>
   <path class="fil2" d="M1755.24 2086.87l-617.24 0c-40.03,0 -72.64,-32.61 -72.64,-72.64 0,-40.03 32.61,-72.64 72.64,-72.64l617.24 -0c40.03,0 72.64,32.61 72.64,72.64 0,40.04 -32.61,72.65 -72.64,72.65z"/>
   <path class="fil2" d="M1557.75 1981.89c-17.11,0 -249.41,6.35 -249.41,-20.15 0,-73.35 57.94,-128.63 134.78,-128.63 76.84,0 134.79,55.29 134.79,128.63 0,11.06 -8.96,20.15 -20.16,20.15z"/>
   <path class="fil2" d="M1496.31 1885.04c-11.04,0 -124.01,5.23 -124.01,-21.28l0 -172.3c0,-11.06 8.96,-20.15 20.15,-20.15l103.85 0c11.06,0 20.16,9.1 20.16,20.15l0 173.42c0,11.06 -9.1,20.16 -20.16,20.16z"/>
  </g>
  <g id="_3061018925248">
   <path class="fil3" d="M2249.69 1632.58l-287.94 -1.4 -17.33 -217.22 285.36 0 39.8 194.41c2.66,12.86 -7.56,24.22 -19.88,24.22zm-328.23 -1.6l-224.26 -1.09 -9.67 -215.94 216.62 0 17.31 217.03zm-264.71 -1.29l-225.19 -1.1 0.26 -214.64 215.27 0 9.66 215.74zm-265.49 -1.3l-228.24 -1.11 9.56 -213.33 218.93 0 -0.25 214.44zm-268.66 -1.31l-224.24 -1.09 16.92 -212.04 216.87 0 -9.55 213.14zm-264.49 -1.29l-274.7 -1.34c-12.43,-0.03 -21.97,-11.39 -19.74,-23.65l32.44 -186.86 278.91 0 -16.9 211.85zm-255.01 -252.16l30.69 -176.78 258.54 0 -14.11 176.78 -275.13 0zm329.51 -176.78l209.26 0 -7.92 176.78 -215.45 0 14.11 -176.78zm249.7 0l209.47 0 -0.21 176.78 -217.18 0 7.92 -176.78zm249.78 0l205.28 0 7.92 176.78 -213.41 0 0.21 -176.78zm245.72 0l209.02 0 14.11 176.78 -215.2 0 -7.92 -176.78zm249.29 0l258.24 0 36.18 176.78 -280.32 0 -14.11 -176.78zm-1286.31 -40.31l28.94 -166.7 239.12 0 -13.3 166.7 -254.76 0zm308.34 -166.7l202.01 0 -7.46 166.7 -207.85 0 13.31 -166.7zm242.45 0l200.44 0 -0.2 166.7 -207.71 0 7.47 -166.7zm240.75 0l195.77 0 7.46 166.7 -203.43 0 0.2 -166.7zm236.2 0l201.77 0 13.3 166.7 -207.61 0 -7.46 -166.7zm242.05 0l232.38 0 34.12 166.7 -253.2 0 -13.3 -166.7zm-1233.85 -40.31l32.37 -186.43c1.68,-9.66 10.07,-16.65 19.87,-16.65l199.31 0 -16.2 203.08 -235.34 0zm291.82 -203.08l193.5 -0 -9.09 203.08 -200.61 0 16.21 -203.08zm233.93 -0l189.83 0 -0.24 203.08 -198.69 0 9.09 -203.08zm230.15 0l184.57 0 9.1 203.08 -193.92 0 0.25 -203.08zm225.01 0l193.25 -0.01 16.21 203.09 -200.36 0 -9.09 -203.08zm233.53 -0.01l185.54 0c9.52,0 17.77,6.72 19.74,16.1l38.28 186.99 -227.35 0 -16.2 -203.09z"/>
   <path class="fil3" d="M1725.24 2086.87l-617.24 0c-40.03,0 -72.64,-32.61 -72.64,-72.64 0,-40.03 32.61,-72.64 72.64,-72.64l617.24 -0c40.03,0 72.64,32.61 72.64,72.64 0,40.04 -32.61,72.65 -72.64,72.65z"/>
   <path class="fil3" d="M1527.75 1981.89c-17.11,0 -249.41,6.35 -249.41,-20.15 0,-73.35 57.94,-128.63 134.78,-128.63 76.84,0 134.79,55.29 134.79,128.63 0,11.06 -8.96,20.15 -20.16,20.15z"/>
   <path class="fil3" d="M1466.31 1885.04c-11.04,0 -124.01,5.23 -124.01,-21.28l0 -172.3c0,-11.06 8.96,-20.15 20.15,-20.15l103.85 0c11.06,0 20.16,9.1 20.16,20.15l0 173.42c0,11.06 -9.1,20.16 -20.16,20.16z"/>
  </g>
 </g>
</svg>
